<?xml version="1.0" standalone="no"?>
<!DOCTYPE svg PUBLIC "-//W3C//DTD SVG 20010904//EN"
 "http://www.w3.org/TR/2001/REC-SVG-20010904/DTD/svg10.dtd">
<svg version="1.0" xmlns="http://www.w3.org/2000/svg"
 width="634.000000pt" height="634.000000pt" viewBox="0 0 634.000000 634.000000"
 preserveAspectRatio="xMidYMid meet">
<metadata>
Created by potrace 1.14, written by Peter Selinger 2001-2017
</metadata>
<g transform="translate(0.000000,634.000000) scale(0.100000,-0.100000)"
fill="#000000" stroke="none">
<path d="M2599 5067 c-13 -7 -51 -24 -84 -37 -33 -13 -69 -28 -80 -34 -11 -6
-22 -11 -25 -11 -3 -1 -21 -8 -40 -17 -19 -8 -60 -26 -90 -38 -91 -39 -95 -44
-52 -59 20 -8 61 -25 90 -38 29 -14 58 -26 65 -27 7 -2 46 -19 87 -38 41 -19
91 -40 110 -48 19 -7 39 -17 43 -21 8 -6 27 0 142 51 35 16 176 76 275 118
l35 14 -39 20 c-21 11 -46 21 -56 23 -10 2 -26 8 -36 14 -25 13 -118 57 -124
59 -8 1 -52 19 -95 38 -22 10 -42 18 -45 19 -7 2 -43 17 -51 21 -3 2 -16 -3
-30 -9z"/>
<path d="M2107 4772 c-2 -4 -3 -738 -3 -1632 l1 -1625 75 -37 c41 -20 80 -35
87 -33 6 2 13 -1 15 -6 2 -6 10 -11 18 -13 8 -2 47 -18 85 -36 39 -18 75 -33
80 -34 6 -1 24 -10 42 -19 18 -9 36 -17 41 -17 5 0 8 716 8 1631 l-1 1632 -55
24 c-30 14 -73 33 -95 44 -119 55 -295 126 -298 121z"/>
<path d="M3100 4757 c-14 -7 -41 -19 -60 -27 -19 -7 -57 -24 -85 -36 -27 -12
-77 -33 -110 -47 -33 -13 -79 -33 -102 -43 l-43 -19 0 -1632 c0 -898 3 -1633
6 -1633 12 0 109 45 112 52 2 4 10 4 19 1 12 -5 14 -3 8 7 -5 8 -4 11 3 6 6
-3 40 7 77 24 36 16 67 30 70 30 5 0 327 136 393 166 29 13 55 24 58 24 3 0
26 9 52 21 71 31 80 34 177 74 50 21 105 44 123 51 17 8 49 21 70 30 20 8 46
19 57 24 11 5 108 46 215 90 107 44 204 85 215 90 11 5 99 42 195 82 l175 73
0 278 c0 152 -4 277 -8 278 -7 1 -137 -50 -182 -71 -67 -32 -382 -160 -392
-160 -7 0 -13 -4 -13 -10 0 -5 -6 -10 -13 -10 -7 0 -93 -34 -192 -76 -99 -42
-186 -76 -192 -77 -7 0 -13 -4 -13 -8 0 -4 -16 -10 -35 -13 -19 -4 -35 -11
-35 -16 0 -6 -7 -10 -15 -10 -8 0 -34 -9 -58 -19 -125 -58 -428 -178 -432
-171 -2 3 -4 227 -4 496 0 1682 -2 2194 -8 2194 -5 0 -19 -6 -33 -13z"/>
<path d="M4228 3060 c-20 -10 -39 -16 -42 -13 -2 3 -15 -1 -28 -8 -12 -7 -26
-12 -30 -11 -5 1 -8 -2 -8 -6 0 -5 -6 -9 -12 -9 -13 -1 -565 -210 -583 -221
-5 -4 -15 -7 -21 -8 -7 -1 -62 -21 -123 -44 l-111 -43 0 -214 c0 -200 1 -213
18 -205 9 6 89 40 177 77 88 37 178 75 200 84 22 10 60 25 85 35 25 10 57 24
72 32 14 8 33 14 42 14 9 0 16 5 16 10 0 6 6 10 13 10 14 0 165 62 208 85 14
8 29 12 33 8 3 -3 6 -2 6 4 0 5 6 10 13 10 6 0 32 10 56 21 25 12 48 22 53 22
4 0 33 12 65 26 65 29 68 30 243 105 69 29 129 56 133 59 5 4 -31 24 -80 45
-48 20 -106 45 -128 55 -236 104 -225 101 -267 80z"/>
</g>
</svg>
